<svg width="57" height="57" viewBox="0 0 57 57" fill="none" xmlns="http://www.w3.org/2000/svg">
<g clip-path="url(#clip0_326_1601)">
<path d="M49.4268 9.40502V18.1245C49.4268 18.587 49.2431 19.0305 48.916 19.3576C48.589 19.6846 48.1454 19.8683 47.6829 19.8683C47.2204 19.8683 46.7768 19.6846 46.4498 19.3576C46.1227 19.0305 45.939 18.587 45.939 18.1245V11.1489H38.9635C38.501 11.1489 38.0574 10.9652 37.7303 10.6381C37.4033 10.3111 37.2196 9.86753 37.2196 9.40502C37.2196 8.94251 37.4033 8.49895 37.7303 8.17191C38.0574 7.84486 38.501 7.66113 38.9635 7.66113H47.6829C48.1454 7.66113 48.589 7.84486 48.916 8.17191C49.2431 8.49895 49.4268 8.94251 49.4268 9.40502ZM18.0368 46.0267H11.0613V39.0511C11.0613 38.5886 10.8775 38.145 10.5505 37.818C10.2234 37.491 9.77988 37.3072 9.31737 37.3072C8.85487 37.3072 8.4113 37.491 8.08426 37.818C7.75722 38.145 7.57349 38.5886 7.57349 39.0511V47.7705C7.57349 48.2331 7.75722 48.6766 8.08426 49.0037C8.4113 49.3307 8.85487 49.5144 9.31737 49.5144H18.0368C18.4993 49.5144 18.9429 49.3307 19.2699 49.0037C19.597 48.6766 19.7807 48.2331 19.7807 47.7705C19.7807 47.308 19.597 46.8645 19.2699 46.5374C18.9429 46.2104 18.4993 46.0267 18.0368 46.0267ZM47.6829 37.3072C47.2204 37.3072 46.7768 37.491 46.4498 37.818C46.1227 38.145 45.939 38.5886 45.939 39.0511V46.0267H38.9635C38.501 46.0267 38.0574 46.2104 37.7303 46.5374C37.4033 46.8645 37.2196 47.308 37.2196 47.7705C37.2196 48.2331 37.4033 48.6766 37.7303 49.0037C38.0574 49.3307 38.501 49.5144 38.9635 49.5144H47.6829C48.1454 49.5144 48.589 49.3307 48.916 49.0037C49.2431 48.6766 49.4268 48.2331 49.4268 47.7705V39.0511C49.4268 38.5886 49.2431 38.145 48.916 37.818C48.589 37.491 48.1454 37.3072 47.6829 37.3072ZM9.31737 19.8683C9.77988 19.8683 10.2234 19.6846 10.5505 19.3576C10.8775 19.0305 11.0613 18.587 11.0613 18.1245V11.1489H18.0368C18.4993 11.1489 18.9429 10.9652 19.2699 10.6381C19.597 10.3111 19.7807 9.86753 19.7807 9.40502C19.7807 8.94251 19.597 8.49895 19.2699 8.17191C18.9429 7.84486 18.4993 7.66113 18.0368 7.66113H9.31737C8.85487 7.66113 8.4113 7.84486 8.08426 8.17191C7.75722 8.49895 7.57349 8.94251 7.57349 9.40502V18.1245C7.57349 18.587 7.75722 19.0305 8.08426 19.3576C8.4113 19.6846 8.85487 19.8683 9.31737 19.8683Z" fill="white"/>
<path d="M26.6662 23.6326H24.3382L23.9382 24.7686H22.9862L24.9782 19.2006H26.0342L28.0262 24.7686H27.0662L26.6662 23.6326ZM26.4102 22.8886L25.5062 20.3046L24.5942 22.8886H26.4102ZM31.7803 24.7686L30.5003 22.5446H29.8043V24.7686H28.8923V19.2086H30.8123C31.239 19.2086 31.599 19.2832 31.8923 19.4326C32.191 19.5819 32.4123 19.7819 32.5563 20.0326C32.7056 20.2832 32.7803 20.5632 32.7803 20.8726C32.7803 21.2352 32.6736 21.5659 32.4603 21.8646C32.2523 22.1579 31.9296 22.3579 31.4923 22.4646L32.8683 24.7686H31.7803ZM29.8043 21.8166H30.8123C31.1536 21.8166 31.4096 21.7312 31.5803 21.5606C31.7563 21.3899 31.8443 21.1606 31.8443 20.8726C31.8443 20.5846 31.759 20.3606 31.5883 20.2006C31.4176 20.0352 31.159 19.9526 30.8123 19.9526H29.8043V21.8166ZM21.5335 27.2086V32.7686H20.6215V28.9606L18.9255 32.7686H18.2935L16.5895 28.9606V32.7686H15.6775V27.2086H16.6615L18.6135 31.5686L20.5575 27.2086H21.5335ZM22.4281 30.5446C22.4281 30.1019 22.5188 29.7099 22.7001 29.3686C22.8868 29.0272 23.1375 28.7632 23.4521 28.5766C23.7721 28.3846 24.1241 28.2886 24.5081 28.2886C24.8548 28.2886 25.1561 28.3579 25.4121 28.4966C25.6735 28.6299 25.8815 28.7979 26.0361 29.0006V28.3606H26.9561V32.7686H26.0361V32.1126C25.8815 32.3206 25.6708 32.4939 25.4041 32.6326C25.1375 32.7712 24.8335 32.8406 24.4921 32.8406C24.1135 32.8406 23.7668 32.7446 23.4521 32.5526C23.1375 32.3552 22.8868 32.0832 22.7001 31.7366C22.5188 31.3846 22.4281 30.9872 22.4281 30.5446ZM26.0361 30.5606C26.0361 30.2566 25.9721 29.9926 25.8441 29.7686C25.7215 29.5446 25.5588 29.3739 25.3561 29.2566C25.1535 29.1392 24.9348 29.0806 24.7001 29.0806C24.4655 29.0806 24.2468 29.1392 24.0441 29.2566C23.8415 29.3686 23.6761 29.5366 23.5481 29.7606C23.4255 29.9792 23.3641 30.2406 23.3641 30.5446C23.3641 30.8486 23.4255 31.1152 23.5481 31.3446C23.6761 31.5739 23.8415 31.7499 24.0441 31.8726C24.2521 31.9899 24.4708 32.0486 24.7001 32.0486C24.9348 32.0486 25.1535 31.9899 25.3561 31.8726C25.5588 31.7552 25.7215 31.5846 25.8441 31.3606C25.9721 31.1312 26.0361 30.8646 26.0361 30.5606ZM29.066 29.0006C29.1994 28.7766 29.3754 28.6032 29.594 28.4806C29.818 28.3526 30.082 28.2886 30.386 28.2886V29.2326H30.154C29.7967 29.2326 29.5247 29.3232 29.338 29.5046C29.1567 29.6859 29.066 30.0006 29.066 30.4486V32.7686H28.154V28.3606H29.066V29.0006ZM32.9683 30.5686L35.0003 32.7686H33.7683L32.1363 30.8726V32.7686H31.2243V26.8486H32.1363V30.2886L33.7363 28.3606H35.0003L32.9683 30.5686ZM39.694 30.4566C39.694 30.6219 39.6834 30.7712 39.662 30.9046H36.294C36.3207 31.2566 36.4514 31.5392 36.686 31.7526C36.9207 31.9659 37.2087 32.0726 37.55 32.0726C38.0407 32.0726 38.3874 31.8672 38.59 31.4566H39.574C39.4407 31.8619 39.198 32.1952 38.846 32.4566C38.4994 32.7126 38.0674 32.8406 37.55 32.8406C37.1287 32.8406 36.75 32.7472 36.414 32.5606C36.0834 32.3686 35.822 32.1019 35.63 31.7606C35.4434 31.4139 35.35 31.0139 35.35 30.5606C35.35 30.1072 35.4407 29.7099 35.622 29.3686C35.8087 29.0219 36.0674 28.7552 36.398 28.5686C36.734 28.3819 37.118 28.2886 37.55 28.2886C37.966 28.2886 38.3367 28.3792 38.662 28.5606C38.9874 28.7419 39.2407 28.9979 39.422 29.3286C39.6034 29.6539 39.694 30.0299 39.694 30.4566ZM38.742 30.1686C38.7367 29.8326 38.6167 29.5632 38.382 29.3606C38.1474 29.1579 37.8567 29.0566 37.51 29.0566C37.1954 29.0566 36.926 29.1579 36.702 29.3606C36.478 29.5579 36.3447 29.8272 36.302 30.1686H38.742ZM41.5035 29.0006C41.6369 28.7766 41.8129 28.6032 42.0315 28.4806C42.2555 28.3526 42.5195 28.2886 42.8235 28.2886V29.2326H42.5915C42.2342 29.2326 41.9622 29.3232 41.7755 29.5046C41.5942 29.6859 41.5035 30.0006 41.5035 30.4486V32.7686H40.5915V28.3606H41.5035V29.0006Z" fill="white"/>
</g>
<defs>
<clipPath id="clip0_326_1601">
<rect width="55.8044" height="55.8044" fill="white" transform="translate(0.5979 0.685547)"/>
</clipPath>
</defs>
</svg>
